#define eyedropper_width 16
#define eyedropper_height 16
static unsigned char eyedropper_bits[] = {
   0x00, 0x70, 0x00, 0xf8, 0x80, 0xfd, 0xc0, 0xff, 0xc0, 0x7f, 0xc0, 0x3f,
   0x60, 0x1e, 0x30, 0x3c, 0x18, 0x3c, 0x0c, 0x1e, 0x06, 0x03, 0x83, 0x01,
   0xc5, 0x00, 0x6b, 0x00, 0x35, 0x00, 0x1e, 0x00 };
