#define eyedropper_width 24
#define eyedropper_height 24
static unsigned char eyedropper_bits[] = {
   0x00, 0x00, 0x3c, 0x00, 0x00, 0x7e, 0x00, 0x00, 0xff, 0x00, 0x98, 0xff,
   0x00, 0xfc, 0xff, 0x00, 0xfc, 0x7f, 0x00, 0xfc, 0x3f, 0x00, 0xfc, 0x1f,
   0x00, 0xfe, 0x0f, 0x00, 0xe7, 0x07, 0x80, 0xc3, 0x0f, 0xc0, 0x81, 0x0f,
   0xe0, 0x80, 0x0f, 0x70, 0xc0, 0x06, 0x38, 0x60, 0x00, 0x1c, 0x30, 0x00,
   0x0c, 0x18, 0x00, 0x06, 0x0e, 0x00, 0x06, 0x07, 0x00, 0x86, 0x03, 0x00,
   0xc3, 0x01, 0x00, 0xfb, 0x00, 0x00, 0x1f, 0x00, 0x00, 0x00, 0x00, 0x00 };
