#define left_width 11
#define left_height 16
static unsigned char left_bits[] = {
   0x00, 0x00, 0x80, 0x03, 0xc0, 0x07, 0xe0, 0x07, 0xf0, 0x03, 0xf8, 0x01,
   0xfc, 0x00, 0x7e, 0x00, 0x7e, 0x00, 0xfc, 0x00, 0xf8, 0x01, 0xf0, 0x03,
   0xe0, 0x07, 0xc0, 0x07, 0x80, 0x03, 0x00, 0x00 };
