#define list_width 16
#define list_height 16
static unsigned char list_bits[] = {
   0xe7, 0xff, 0xe7, 0xff, 0xe7, 0xff, 0x00, 0x00, 0x00, 0x00, 0x00, 0x00,
   0xe7, 0xff, 0xe7, 0xff, 0xe7, 0xff, 0x00, 0x00, 0x00, 0x00, 0x00, 0x00,
   0xe7, 0xff, 0xe7, 0xff, 0xe7, 0xff, 0x00, 0x00 };
