#define list_width 24
#define list_height 21
static unsigned char list_bits[] = {
   0xe7, 0xff, 0xff, 0xe7, 0xff, 0xff, 0xe7, 0xff, 0xff, 0x00, 0x00, 0x00,
   0x00, 0x00, 0x00, 0x00, 0x00, 0x00, 0xe7, 0xff, 0xff, 0xe7, 0xff, 0xff,
   0xe7, 0xff, 0xff, 0x00, 0x00, 0x00, 0x00, 0x00, 0x00, 0x00, 0x00, 0x00,
   0xe7, 0xff, 0xff, 0xe7, 0xff, 0xff, 0xe7, 0xff, 0xff, 0x00, 0x00, 0x00,
   0x00, 0x00, 0x00, 0x00, 0x00, 0x00, 0xe7, 0xff, 0xff, 0xe7, 0xff, 0xff,
   0xe7, 0xff, 0xff };
