#define move_width 24
#define move_height 24
static unsigned char move_bits[] = {
   0x00, 0x18, 0x00, 0x00, 0x3c, 0x00, 0x00, 0x7e, 0x00, 0x00, 0xff, 0x00,
   0x80, 0xff, 0x01, 0x00, 0x3c, 0x00, 0x00, 0x3c, 0x00, 0x10, 0x3c, 0x08,
   0x18, 0x3c, 0x18, 0x1c, 0x3c, 0x38, 0xfe, 0xff, 0x7f, 0xff, 0xff, 0xff,
   0xff, 0xff, 0xff, 0xfe, 0xff, 0x7f, 0x1c, 0x3c, 0x38, 0x18, 0x3c, 0x18,
   0x10, 0x3c, 0x08, 0x00, 0x3c, 0x00, 0x00, 0x3c, 0x00, 0x80, 0xff, 0x01,
   0x00, 0xff, 0x00, 0x00, 0x7e, 0x00, 0x00, 0x3c, 0x00, 0x00, 0x18, 0x00 };
