#define right_width 11
#define right_height 16
static unsigned char right_bits[] = {
   0x00, 0x00, 0x0e, 0x00, 0x1f, 0x00, 0x3f, 0x00, 0x7e, 0x00, 0xfc, 0x00,
   0xf8, 0x01, 0xf0, 0x03, 0xf0, 0x03, 0xf8, 0x01, 0xfc, 0x00, 0x7e, 0x00,
   0x3f, 0x00, 0x1f, 0x00, 0x0e, 0x00, 0x00, 0x00 };
