#define right_width 15
#define right_height 22
static unsigned char right_bits[] = {
   0x00, 0x00, 0x1c, 0x00, 0x3e, 0x00, 0x7f, 0x00, 0xff, 0x00, 0xfe, 0x01,
   0xfc, 0x03, 0xf8, 0x07, 0xf0, 0x0f, 0xe0, 0x1f, 0xc0, 0x3f, 0xc0, 0x3f,
   0xe0, 0x1f, 0xf0, 0x0f, 0xf8, 0x07, 0xfc, 0x03, 0xfe, 0x01, 0xff, 0x00,
   0x7f, 0x00, 0x3e, 0x00, 0x1c, 0x00, 0x00, 0x00 };
