#define zoom_out_width 16
#define zoom_out_height 16
static unsigned char zoom_out_bits[] = {
   0xf0, 0x01, 0xf8, 0x03, 0x1c, 0x07, 0x0e, 0x0e, 0x07, 0x1c, 0x03, 0x18,
   0xf3, 0x19, 0x03, 0x18, 0x07, 0x1c, 0x0e, 0x0e, 0x1c, 0x1f, 0xf8, 0x3f,
   0xf0, 0x7d, 0x00, 0xf8, 0x00, 0xf0, 0x00, 0xe0 };
